<svg xmlns="http://www.w3.org/2000/svg" xmlns:xlink="http://www.w3.org/1999/xlink" viewBox="0,0,256,256" width="48px" height="48px" fill-rule="none"><defs><linearGradient x1="20.715" y1="5.387" x2="27.24" y2="42.389" gradientUnits="userSpaceOnUse" id="color-1"><stop offset="0" stop-color="#91dfe2"></stop><stop offset="0.99" stop-color="#003577"></stop><stop offset="1" stop-color="#003577"></stop></linearGradient></defs><g fill="none" fill-rule="none" stroke="none" stroke-width="1" stroke-linecap="butt" stroke-linejoin="miter" stroke-miterlimit="10" stroke-dasharray="" stroke-dashoffset="0" font-family="none" font-weight="none" font-size="none" text-anchor="none" style="mix-blend-mode: normal"><g transform="scale(5.33333,5.33333)"><path d="M23.997,3.999c11.04,0 20.001,8.96 20.001,20c0,11.04 -8.961,20 -20.001,20c-11.04,0 -20.001,-8.96 -20.001,-20c0,-11.04 8.961,-20 20.001,-20z" fill="url(#color-1)" fill-rule="nonzero"></path><path d="M11.997,26.999v-10.999l1.764,-0.001l6.236,9.727v-9.727h1.001v10.999l-1.705,0.001l-6.295,-9.816v9.816z" fill="#ffffff" fill-rule="evenodd"></path><path d="M8.997,24.999c0.551,0 1,0.449 1,1c0,0.551 -0.449,1 -1,1c-0.551,0 -1,-0.449 -1,-1c0,-0.551 0.45,-1 1,-1z" fill="#ffffff" fill-rule="evenodd"></path><path d="M23.997,26.999v-10.999h6v0.999h-4.999v4.001h4v0.999h-4v4h4.999v1.001z" fill="#ffffff" fill-rule="evenodd"></path><path d="M34.997,26.999v-10h-3.997v-0.999h8.999v0.999h-4v10z" fill="#ffffff" fill-rule="evenodd"></path><path d="M20.997,33.499c0,-1.38 0.897,-2.5 2.001,-2.5c1.104,0 2.002,1.12 2.002,2.5c0,1.38 -0.897,2.5 -2.001,2.5c-1.104,0 -2.002,-1.12 -2.002,-2.5zM23.999,33.499c0,-0.828 -0.448,-1.5 -1,-1.5c-0.552,0 -1,0.672 -1,1.5c0,0.828 0.448,1.5 1,1.5c0.552,0 1,-0.672 1,-1.5z" fill="#f2f2f2" fill-rule="evenodd"></path><path d="M28.996,33.499c0,-1.38 0.897,-2.5 2.001,-2.5c1.104,0 2.001,1.12 2.001,2.5c0,0.172 -0.015,0.34 -0.041,0.501h-2.903c0.137,0.583 0.508,0.999 0.943,0.999h1.6c-0.365,0.608 -0.947,1 -1.6,1c-1.104,0 -2.001,-1.12 -2.001,-2.5zM30.997,31.999c-0.436,0 -0.807,0.417 -0.944,1h1.887c-0.137,-0.583 -0.508,-1 -0.943,-1z" fill="#f2f2f2" fill-rule="evenodd"></path><path d="M25.997,35.999v-4.999h1.001v0.999c0.384,-0.716 0.903,-1 2,-1v1c-1.097,0 -1.616,0.284 -2,1v3z" fill="#f2f2f2" fill-rule="evenodd"></path><path d="M14.999,32.499c0,-1.932 1.568,-3.5 3.5,-3.5c0.536,0 1.045,0.121 1.5,0.337v1.164c-0.419,-0.315 -0.939,-0.501 -1.5,-0.501c-1.38,0 -2.5,1.12 -2.5,2.5c0,1.38 1.12,2.5 2.5,2.5c0.561,0 1.081,-0.185 1.5,-0.5v1.164c-0.455,0.216 -0.964,0.336 -1.5,0.336c-1.932,0 -3.5,-1.568 -3.5,-3.5z" fill="#f2f2f2" fill-rule="evenodd"></path></g></g></svg>